<svg viewBox="0 0 525 235" xmlns="http://www.w3.org/2000/svg">
  <path
    fill-rule="evenodd"
    clip-rule="evenodd"
    d="M150 45C169.33 45.0005 185 60.6704 185 80V125H140.001C120.671 125 105 109.33 105 90V80C105 60.67 120.671 45 140.001 45H150ZM140.001 75C137.24 75 135.001 77.2386 135.001 80V90C135.001 92.7614 137.24 95 140.001 95H155V80C155 77.2389 152.761 75.0005 150 75H140.001Z"
  />
  <path
    d="M239.999 45C259.329 45.0003 274.999 60.6702 274.999 80V125H244.999V80C244.999 77.2387 242.76 75.0003 239.999 75H225V125H195V45H239.999Z"
  />
  <path
    d="M329.999 45C349.329 45.0005 364.999 60.6704 364.999 80V125H334.999V80C334.999 77.2389 332.76 75.0005 329.999 75H315V125H285V45H329.999Z"
  />
  <path
    d="M419.998 45C439.328 45.0003 454.998 60.6702 454.998 80V87H424.998V80C424.998 77.2387 422.759 75.0003 419.998 75H409.999C407.238 75 404.999 77.2386 404.999 80V90C404.999 92.7614 407.238 95 409.999 95H453.999V125H409.999C390.669 125 374.999 109.33 374.999 90V80C374.999 60.67 390.669 45 409.999 45H419.998Z"
  />
  <path
    d="M524.998 75H499.999C497.238 75 494.999 77.2386 494.999 80V125H464.999V80C464.999 60.67 480.669 45 499.999 45H524.998V75Z"
  />
  <path
    d="M55 0C85.3658 5.39613e-05 109.984 20.1348 110 44.9766V46.4619C100.795 54.7017 95 66.6733 95 80V90C95 103.326 100.795 115.297 110 123.537V124H85V95H60.001C57.2396 95 55.001 92.7614 55.001 90V75H85V45H55.001V25H25.001V90C25.001 106.459 36.3617 120.262 51.6689 124H35C15.6701 124 0 108.33 0 89V0H55Z"
  />
  <path
    fill-rule="evenodd"
    clip-rule="evenodd"
    d="M130 155C149.329 155 165 170.67 165 190V235H120C100.671 235 85.0005 219.33 85.0005 200V190C85.0005 170.67 100.671 155 120 155H130ZM120 185C117.239 185 115 187.239 115 190V200C115 202.761 117.239 205 120 205H135V190C135 187.239 132.761 185 130 185H120Z"
  />
  <path
    d="M205 155H235V185H205V200C205 202.761 207.239 205 210 205H235V235H210C190.671 235 175 219.33 175 200V135H205V155Z"
  />
  <path
    d="M275 175L275.515 174.993C286.322 174.719 295 165.873 295 155H324.999C324.999 166.386 321.19 176.881 314.782 185.286C321.095 191.617 325 200.353 325 210V235H295V210C295 207.239 292.76 205.001 290 205H275V235H245V135H275V175Z"
  />
  <path d="M365 235H335V155H365V235Z" />
  <path
    d="M419.999 155C439.328 155.001 454.999 170.67 454.999 190V235H424.999V190C424.999 187.239 422.76 185.001 419.999 185H405V235H375V155H419.999Z"
  />
</svg>
