<svg width="500" height="500" viewBox="0 0 500 500" fill="none" xmlns="http://www.w3.org/2000/svg">
<g clip-path="url(#clip0_15_2)">
<rect width="500" height="500" fill="white"/>
<path d="M499.5 0C499.776 4.0443e-05 500 0.224079 500 0.5V499.5C500 499.776 499.776 500 499.5 500H0.5C0.223858 500 0 499.776 0 499.5V0.5C0.00022732 0.224051 0.223998 0 0.5 0H499.5ZM458.333 97.2197C458.333 96.791 457.828 96.5615 457.505 96.8428L42.6758 457.456C42.3267 457.759 42.5414 458.334 43.0039 458.334H168.498C168.619 458.334 168.735 458.29 168.826 458.211L374.542 279.383C374.866 279.101 375.37 279.331 375.37 279.76V457.834C375.37 458.11 375.594 458.334 375.87 458.334H457.833C458.109 458.334 458.333 458.11 458.333 457.834V97.2197ZM42.167 41.667C41.8909 41.667 41.667 41.8909 41.667 42.167V124.5C41.667 124.776 41.8908 125 42.167 125H166.23C166.593 125 166.836 125.375 166.687 125.706L42.7324 400.926C42.5122 401.415 43.1119 401.861 43.5166 401.509L191.913 272.509C191.968 272.461 192.011 272.403 192.041 272.337L258.266 125.295C258.346 125.116 258.525 125 258.722 125H361.418C361.538 125 361.655 124.957 361.746 124.878L456.461 42.5449C456.81 42.2415 456.595 41.667 456.133 41.667H42.167Z" fill="black"/>
</g>
<defs>
<clipPath id="clip0_15_2">
<rect width="500" height="500" fill="white"/>
</clipPath>
</defs>
</svg>
